<svg width="18" height="18" viewBox="0 0 18 18" fill="none" xmlns="http://www.w3.org/2000/svg">
<path fill-rule="evenodd" clip-rule="evenodd" d="M0.5 6.56757V11.4324C0.5 13.7258 0.5 14.8724 1.22162 15.5849C1.87718 16.2321 2.89572 16.2913 4.81827 16.2968C4.81303 16.262 4.80803 16.2271 4.80324 16.192C4.68837 15.3484 4.68839 14.2759 4.68841 12.9453V12.8919C4.68841 12.4889 5.01933 12.1622 5.42754 12.1622C5.83575 12.1622 6.16667 12.4889 6.16667 12.8919C6.16667 14.2885 6.16824 15.2626 6.26832 15.9975C6.36554 16.7114 6.54337 17.0895 6.81613 17.3588C7.0889 17.6281 7.4718 17.8037 8.195 17.8996C8.9394 17.9985 9.926 18 11.3406 18H12.3261C13.7407 18 14.7273 17.9985 15.4717 17.8996C16.1948 17.8037 16.5778 17.6281 16.8505 17.3588C17.1233 17.0895 17.3011 16.7114 17.3983 15.9975C17.4984 15.2626 17.5 14.2885 17.5 12.8919V5.10811C17.5 3.71149 17.4984 2.73743 17.3983 2.0025C17.3011 1.28855 17.1233 0.91048 16.8505 0.6412C16.5778 0.37192 16.1948 0.19635 15.4717 0.10036C14.7273 0.00154991 13.7407 0 12.3261 0H11.3406C9.926 0 8.9394 0.00154991 8.195 0.10036C7.4718 0.19635 7.0889 0.37192 6.81613 0.6412C6.54337 0.91048 6.36554 1.28855 6.26832 2.0025C6.16824 2.73743 6.16667 3.71149 6.16667 5.10811C6.16667 5.51113 5.83575 5.83784 5.42754 5.83784C5.01933 5.83784 4.68841 5.51113 4.68841 5.10811V5.05472C4.68839 3.72409 4.68837 2.65156 4.80324 1.80803C4.80803 1.77288 4.81303 1.73795 4.81827 1.70325C2.89572 1.70867 1.87718 1.76792 1.22162 2.41515C0.5 3.12759 0.5 4.27425 0.5 6.56757ZM10.385 11.9484L12.8487 9.516C13.1374 9.231 13.1374 8.769 12.8487 8.484L10.385 6.05157C10.0963 5.76659 9.6283 5.76659 9.3397 6.05157C9.051 6.33655 9.051 6.79859 9.3397 7.0836L10.5417 8.2703H3.45652C3.04831 8.2703 2.71739 8.597 2.71739 9C2.71739 9.403 3.04831 9.7297 3.45652 9.7297H10.5417L9.3397 10.9164C9.051 11.2014 9.051 11.6635 9.3397 11.9484C9.6283 12.2334 10.0963 12.2334 10.385 11.9484Z" fill="white"/>
</svg>
