<svg width="50" height="51" viewBox="0 0 50 51" fill="none" xmlns="http://www.w3.org/2000/svg">
<path d="M40.182 38.2474C42.2848 41.5583 43.2758 43.3161 43.2758 45.1497C43.2758 48.7707 40.5864 50.5265 36.9633 50.5265C35.3662 50.5265 34.3352 50.5245 31.7297 49.169C31.7297 49.169 30.0415 47.6241 26.0908 47.7828C22.1032 47.6252 20.414 49.1885 20.414 49.1885C17.8085 50.5429 16.8144 50.5286 15.2194 50.5286C11.5962 50.5286 8.90474 48.7748 8.90474 45.1517C8.90474 43.3181 9.89883 41.5624 12.0006 38.2494C12.0006 38.2494 15.9739 31.6512 19.4168 28.5472C21.9046 26.3071 25.5318 26.3153 25.5318 26.3153H26.6508C26.6508 26.3153 30.4367 26.3051 32.7689 28.5472C36.1053 31.7638 40.182 38.2484 40.182 38.2474ZM17.2393 21.9029C21.0272 21.9029 24.0975 17.1178 24.0975 11.2157C24.0975 5.31368 21.0272 0.528564 17.2393 0.528564C13.4513 0.528564 10.381 5.31368 10.381 11.2157C10.381 17.1178 13.4513 21.9029 17.2393 21.9029ZM10.6667 32.2532C13.4585 30.9643 14.0953 26.3942 12.0876 22.0452C10.08 17.6962 6.1897 15.2146 3.39787 16.5025C0.606047 17.7904 -0.0297148 22.3615 1.97688 26.7105C3.98449 31.0595 7.87483 33.5401 10.6667 32.2532ZM33.1845 21.9029C36.9725 21.9029 40.0438 17.1178 40.0438 11.2157C40.0438 5.31368 36.9725 0.528564 33.1845 0.528564C29.3966 0.528564 26.3263 5.31368 26.3263 11.2157C26.3263 17.1178 29.3966 21.9029 33.1845 21.9029ZM47.0269 16.5015C44.2341 15.2125 40.3448 17.6942 38.3372 22.0442C36.3295 26.3942 36.9663 30.9643 39.7592 32.2532C42.552 33.5411 46.4413 31.0595 48.449 26.7105C50.4566 22.3615 49.8198 17.7904 47.0269 16.5015Z" fill="#F4E8D8" fill-opacity="0.8"/>
</svg>
