<svg width="20" height="20" viewBox="0 0 20 20" fill="none" xmlns="http://www.w3.org/2000/svg">
<g clip-path="url(#clip0_17_226)">
<path d="M6.99997 5.91665V8.99999L8.49997 9.12499C11.5833 9.41665 13.9583 10.6667 15.4583 12.25C13.75 11.6667 11.5833 11.375 8.74997 11.25L6.99997 11.1667V14.125L2.91664 10.0417L6.99997 5.91665ZM8.20831 2.49999C8.14304 2.4963 8.07794 2.50974 8.01947 2.53898C7.961 2.56821 7.91119 2.61223 7.87497 2.66665L0.999973 9.62499C0.897482 9.73957 0.84082 9.88792 0.84082 10.0417C0.84082 10.1954 0.897482 10.3437 0.999973 10.4583L7.87497 17.3333C7.91119 17.3877 7.961 17.4318 8.01947 17.461C8.07794 17.4902 8.14304 17.5037 8.20831 17.5C8.27405 17.4947 8.33811 17.4765 8.39678 17.4464C8.45546 17.4163 8.5076 17.3749 8.55021 17.3245C8.59281 17.2742 8.62503 17.2159 8.64501 17.1531C8.66499 17.0902 8.67234 17.024 8.66664 16.9583V12.9167C15.2083 13.2083 17.4583 14.5 18.4583 16.75C18.625 17.0833 18.7916 17.2083 18.9166 17.2083C19.0416 17.2083 19.1666 17.0417 19.1666 16.7917C19.0833 12.4167 15 8.08332 8.66664 7.45832V3.04165C8.67234 2.97595 8.66499 2.90976 8.64501 2.84691C8.62503 2.78405 8.59281 2.72578 8.55021 2.67543C8.5076 2.62508 8.45546 2.58366 8.39678 2.55355C8.33811 2.52344 8.27405 2.50523 8.20831 2.49999Z" fill="currentColor"/>
</g>
<defs>
<clipPath id="clip0_17_226">
<rect width="20" height="20" fill="currentColor"/>
</clipPath>
</defs>
</svg>
