<svg width="20" height="20" viewBox="0 0 20 20" fill="none" xmlns="http://www.w3.org/2000/svg">
<path fill-rule="evenodd" clip-rule="evenodd" d="M10.0001 1.04167C7.81396 1.04167 6.04175 2.81388 6.04175 5.00001C6.04175 7.18613 7.81396 8.95834 10.0001 8.95834C12.1862 8.95834 13.9584 7.18613 13.9584 5.00001C13.9584 2.81388 12.1862 1.04167 10.0001 1.04167ZM7.29175 5.00001C7.29175 3.50423 8.50431 2.29167 10.0001 2.29167C11.4959 2.29167 12.7084 3.50423 12.7084 5.00001C12.7084 6.49578 11.4959 7.70834 10.0001 7.70834C8.50431 7.70834 7.29175 6.49578 7.29175 5.00001Z" fill="currentColor"/>
<path fill-rule="evenodd" clip-rule="evenodd" d="M10 10.2083C8.07207 10.2083 6.2958 10.6466 4.97957 11.3869C3.68293 12.1163 2.70836 13.2217 2.70836 14.5833L2.70831 14.6683C2.70737 15.6365 2.70618 16.8517 3.77204 17.7196C4.2966 18.1467 5.03042 18.4505 6.02187 18.6512C7.01608 18.8524 8.31188 18.9583 10 18.9583C11.6882 18.9583 12.984 18.8524 13.9782 18.6512C14.9697 18.4505 15.7035 18.1467 16.228 17.7196C17.2938 16.8517 17.2927 15.6365 17.2917 14.6683L17.2917 14.5833C17.2917 13.2217 16.3172 12.1163 15.0205 11.3869C13.7043 10.6466 11.928 10.2083 10 10.2083ZM3.95836 14.5833C3.95836 13.8739 4.47618 13.1042 5.5924 12.4764C6.68903 11.8596 8.24609 11.4583 10 11.4583C11.754 11.4583 13.311 11.8596 14.4077 12.4764C15.5239 13.1042 16.0417 13.8739 16.0417 14.5833C16.0417 15.6732 16.0081 16.2867 15.4387 16.7503C15.1299 17.0018 14.6137 17.2472 13.7302 17.4261C12.8494 17.6043 11.6453 17.7083 10 17.7083C8.35483 17.7083 7.15064 17.6043 6.26986 17.4261C5.3863 17.2472 4.87013 17.0018 4.56135 16.7503C3.99196 16.2867 3.95836 15.6732 3.95836 14.5833Z" fill="currentColor"/>
</svg>
